<svg xmlns="http://www.w3.org/2000/svg" xmlns:xlink="http://www.w3.org/1999/xlink" width="88.456" height="45.088" viewBox="0 0 88.456 45.088">
  <defs>
    <linearGradient id="linear-gradient" x1="-0.812" y1="0.935" x2="2.085" y2="-0.222" gradientUnits="objectBoundingBox">
      <stop offset="0" stop-color="#007bbb"/>
      <stop offset="0.14" stop-color="#1986a6"/>
      <stop offset="0.73" stop-color="#7db353"/>
      <stop offset="1" stop-color="#a5c532"/>
    </linearGradient>
    <linearGradient id="linear-gradient-2" x1="-0.313" y1="1.882" x2="1.089" y2="-0.264" xlink:href="#linear-gradient"/>
  </defs>
  <g id="Layer_2" data-name="Layer 2" transform="translate(0.012 -8.915)">
    <g id="Layer_1" data-name="Layer 1" transform="translate(-0.012 8.915)">
      <path id="Path_1" data-name="Path 1" d="M19.941,26.594l3.2-1.745c.216-.117.5-.294.715-.408.355.114.711.231.993.348.212.117.429.174.641.291.07,0,.07,0,.143.06a8.267,8.267,0,0,0,1.846.582,2.9,2.9,0,0,0,1.209-.06c1-.291.073-1.046-.212-1.337a1.271,1.271,0,0,1-.355-.234,1.026,1.026,0,0,1-.286-.231c-.425-.234-.85-.468-1.279-.7-.143-.06-.212-.117-.355-.177,4.249-2.908,7.965-6.4,9.955-10.473,1.495-3.142,1.931-6.752-.282-9.2C33.666.948,29.54,0,25.275,0A32.257,32.257,0,0,0,9.843,3.793a2.621,2.621,0,0,0-.711.408C5.787,5.876,1.538,9.543,3.3,12.328c.286.465,1.282,1.685,2.136,1.264a1.221,1.221,0,0,0,.711-1.106c1.066-3.477,5.972-6.006,9.6-7.624-.212.351-.355.7-.5.989-.641,1.28-1.136,2.5-1.707,3.793-1.066,2.5-2.132,5.058-3.2,7.564-.641,1.4-1.209,2.845-1.777,4.305a15.674,15.674,0,0,0-6.331,2.346c-2.986,2.56-.637,6.05,2.7,6.4-.286.755-.568,1.454-.854,2.153C3.16,34.566.638,40.259-.008,42.472a1.955,1.955,0,0,0,2.036,1.783A3.327,3.327,0,0,0,5.261,42.3c.637-1.22,2.662-5.984,3.16-7.27l1.931-4.713a23.829,23.829,0,0,0,6.756-2.327C18.021,27.523,19.017,27.058,19.941,26.594ZM5.717,27.931c-.07-.117-.212-.231-.282-.348A2.214,2.214,0,0,0,5.574,27,3.212,3.212,0,0,1,6.428,25.9c.143-.06.286-.174.429-.234A13.928,13.928,0,0,1,5.717,27.931ZM17.6,12.1c1.422-4.015,2.774-8.029,2.986-8.788C20.794,2.5,26.2,2.152,26.84,2.152c2.418-.057,5.408.465,6.47,2.27,1.209,2.213-1.352,5.646-2.774,7.855a30.16,30.16,0,0,1-6.594,7.1c-.355.234-2.418,1.979-2.774,1.862a17.3,17.3,0,0,0-1.862-.291,23.421,23.421,0,0,0-4.975-.231C14.961,19.32,16.313,15.71,17.6,12.1ZM12.049,26.126c.212-.522.425-1.1.637-1.628q.7-.2,1.425-.348a18.059,18.059,0,0,1,2.913-.468C15.39,24.555,13.752,25.37,12.049,26.126Z" transform="translate(0.012 0)" fill="url(#linear-gradient)"/>
      <path id="Path_3" data-name="Path 3" d="M105.242,74.394c-.143-.073-.212-.143-.286-.143a8.849,8.849,0,0,0-2.631-.641c-1.707-.212-3.341-.425-4.979-.637.5-.854.927-1.545,1.209-2.063.143-.212.286-.355.429-.572a2.349,2.349,0,0,0-1.564-3.623,2.105,2.105,0,0,0-1.931.568A21.408,21.408,0,0,0,92.5,70.91c-.355.5-.641.993-.927,1.422h-.854a14.737,14.737,0,0,0-4.338.143c-1.989.425-3.84,1.545-4.338,3.627a4,4,0,0,0-.139,1.279,2.793,2.793,0,0,0,.5,1.279c.355.641,1.777,1.931,1.931,1.209a5.669,5.669,0,0,1,5.543-4.693,77.644,77.644,0,0,0-4.6,9.777c-.649.954-1.472,2.217-2.5,3.511a27.628,27.628,0,0,1-3.129,3.268c-1.781,1.07-2.418,1.07-3.059.854a1.085,1.085,0,0,1-.425-.212,2,2,0,0,1-.429-1.066,5.52,5.52,0,0,1,.143-2.843,6.382,6.382,0,0,1,1.422-2.418,4.049,4.049,0,0,1,2.132-1.066,1.035,1.035,0,0,1,.927.5c.355.568,0,1.136,0,1.7.07,0,.212-.143.282-.212a3.477,3.477,0,0,0,.711-1.352c.715-1.707-.711-3.2-2.345-3.477A6.36,6.36,0,0,0,74.1,83.847a9.874,9.874,0,0,0-2.878,4.5l-.039.046c-.711.854-1.422,1.707-2.206,2.492,0,0-2.7,3.129-4.975,2.275-.355-.143-.568-.286-.568-.355,2.059-.429,7.108-4.767,5.543-8.039a4.338,4.338,0,0,0-3.909-2.631,5.392,5.392,0,0,0-3.84,1.993A7.215,7.215,0,0,0,59.358,87.8c-.066.081-.127.162-.2.243a17.453,17.453,0,0,1-3.627,3.627,2.7,2.7,0,0,1-1.564.5c-1.931,0-3.7-1.931-4.636-3.477.425-1.495,3.341-3.84,4.693-4.408a8.113,8.113,0,0,1,1.931-.429c.355,0,1.634.286,1.348-.425-.139-.5-.85-.854-1.279-1.066a6.787,6.787,0,0,0-2.345-.433c-2.492,0-4.554,1.495-6.119,3.415a9.175,9.175,0,0,0-3.979-3.2,6.912,6.912,0,0,0-1.159-.282.591.591,0,0,0-.568.212c-.355.5.5,1.066.854,1.352.131.131.251.274.386.417-.734.962-1.827,2.723-3.287,4.489a15.609,15.609,0,0,1-3.558,3.627c-.425.282-1.279.854-1.7.355-.5-.641.494-3.627,1.777-6.47a2.516,2.516,0,0,0-2.063-3.77,4.067,4.067,0,0,0-1.2.144,3.333,3.333,0,0,0-2.214,1.989c-.425,1.066-.854,2.206-1.209,3.341a12.713,12.713,0,0,0-.7,4.357,3.893,3.893,0,0,0,4.338,3.913c2.665-.07,6.382-2.372,10.7-10.623a20.632,20.632,0,0,1,1.244,3.511,26.639,26.639,0,0,1-1.707,2.561,12.713,12.713,0,0,1-3.983,3.554c-.5.212.568.568.773.641,2.418.923,5.118-2.132,6.47-3.77-.07.07.143.355.212.429.143.282.355.568.5.85a6.544,6.544,0,0,0,4.979,2.847c2.132,0,3.84-1.495,5.331-2.986l.286-.216c.409-.429.773-.881,1.159-1.34a7.641,7.641,0,0,0,1.186,2.835,4.473,4.473,0,0,0,3.129,1.707,7.455,7.455,0,0,0,4.411-1.159A15.262,15.262,0,0,0,70.866,92a4.74,4.74,0,0,0,1.225,2.515A5.573,5.573,0,0,0,76.147,95.8a6.907,6.907,0,0,0,3.909-1.422,17.7,17.7,0,0,0,3.693-3.952,8.817,8.817,0,0,0-.066,1.545,3.828,3.828,0,0,0,4.2,3.84c2.774-.073,6.683-2.488,11.094-11.519a.773.773,0,0,0-.073-.773c-.212-.212-.494-.286-.923.143-.773.711-1.931,2.7-3.554,4.836-.854.993-3.477,4.122-4.979,4.122a.259.259,0,0,1-.286-.282c-.139-2.774,3.77-11.094,6.756-16.642a47.291,47.291,0,0,0,7.112.711,5.563,5.563,0,0,0,2.843-.425C106.734,75.387,105.741,74.676,105.242,74.394Zm-39.2,11.589c2.275.711-1.352,3.7-2.561,4.249C63.287,88.042,65.273,85.983,66.045,85.983Z" transform="translate(-17.754 -50.74)" fill="url(#linear-gradient-2)"/>
    </g>
  </g>
</svg>
