<svg xmlns="http://www.w3.org/2000/svg" xmlns:xlink="http://www.w3.org/1999/xlink" width="1366" height="44" viewBox="0 0 1366 44">
  <defs>
    <clipPath id="clip-path">
      <rect id="Rectangle_12" data-name="Rectangle 12" width="1366" height="44" fill="#fff"/>
    </clipPath>
  </defs>
  <g id="Mask_Group_1" data-name="Mask Group 1" clip-path="url(#clip-path)">
    <g id="Group_5" data-name="Group 5">
      <rect id="Rectangle_7" data-name="Rectangle 7" width="1366" height="44" fill="#441487"/>
      <g id="Layer_2" data-name="Layer 2" transform="translate(305.909 2.866)">
        <g id="Object" transform="translate(0 0)">
          <path id="Path_35" data-name="Path 35" d="M19.986,9.234A13.28,13.28,0,0,0,10.519.817,11.068,11.068,0,0,0,.278,2.957L0,2.673A11.452,11.452,0,0,1,10.6.441a13.651,13.651,0,0,1,9.767,8.678Z" transform="translate(0 -0.021)" fill="#fff"/>
        </g>
      </g>
      <g id="Layer_2-2" data-name="Layer 2" transform="translate(28.853 9.805)">
        <g id="Object-2" data-name="Object">
          <path id="Path_36" data-name="Path 36" d="M28.468,10.789,6,22.2,0,11.4,22.469,0l7.825,2.947Z" fill="#fad02c"/>
        </g>
      </g>
      <g id="Layer_2-3" data-name="Layer 2" transform="translate(951 23.731) rotate(180)">
        <g id="Object-3" data-name="Object">
          <path id="Path_36-2" data-name="Path 36" d="M25.831,9.789,5.444,20.139,0,10.346,20.387,0l7.1,2.674Z" fill="#fad02c"/>
        </g>
      </g>
      <g id="Layer_2-4" data-name="Layer 2" transform="translate(491 22.995)">
        <g id="Object-4" data-name="Object">
          <path id="Path_41" data-name="Path 41" d="M5.489,0,6.559,3.74l4.053.179L7.224,6.051l1.071,3.74L5.128,7.368,1.736,9.5,3.167,5.872,0,3.446l4.053.183Z" fill="#fad02c"/>
        </g>
      </g>
      <g id="Layer_2-5" data-name="Layer 2" transform="translate(342.613 4.714)">
        <g id="Object-5" data-name="Object">
          <path id="Path_42" data-name="Path 42" d="M13.637,0l-.428,7.907,7.743,2.828-8,2.06-.425,7.9L8,14.066,0,16.122,5.207,9.963.687,3.327,8.426,6.159Z" fill="#fad02c"/>
        </g>
      </g>
      <g id="Layer_2-6" data-name="Layer 2" transform="translate(544.132 4.48)">
        <g id="Object-6" data-name="Object">
          <path id="Path_42-2" data-name="Path 42" d="M13.637,0l-.428,7.907,7.743,2.828-8,2.06-.425,7.9L8,14.066,0,16.122,5.207,9.963.687,3.327,8.426,6.159Z" fill="#fad02c"/>
        </g>
      </g>
      <g id="Layer_2-7" data-name="Layer 2" transform="translate(838.049)">
        <g id="Object-7" data-name="Object">
          <path id="Path_42-3" data-name="Path 42" d="M13.637,0l-.428,7.907,7.743,2.828-8,2.06-.425,7.9L8,14.066,0,16.122,5.207,9.963.687,3.327,8.426,6.159Z" fill="#fad02c"/>
        </g>
      </g>
      <g id="Layer_2-8" data-name="Layer 2" transform="translate(553.823 -6.771)">
        <g id="Object-8" data-name="Object">
          <path id="Path_56" data-name="Path 56" d="M23.359,0s-1.946,12.332-9.118,17.461A50.8,50.8,0,0,1,0,24.137l20.41-4.6Z" fill="#31858f"/>
        </g>
      </g>
      <g id="Layer_2-9" data-name="Layer 2" transform="translate(580.871 -6.771)">
        <g id="Object-9" data-name="Object">
          <path id="Path_57" data-name="Path 57" d="M0,41.831l.748.14L8.8.129,8.1,0Z" fill="#3a9da8"/>
        </g>
      </g>
      <g id="Layer_2-10" data-name="Layer 2" transform="translate(593.268 -6.771)">
        <g id="Object-10" data-name="Object" transform="translate(0 0)">
          <path id="Path_58" data-name="Path 58" d="M15.514,18.35a23.706,23.706,0,0,0-5.481-9.834A26.337,26.337,0,0,0,5.8,4.7,16.514,16.514,0,0,0,.859,2.184H.826A1.109,1.109,0,0,1,.042.794,1.179,1.179,0,0,1,1.5.045l.071.022a18.416,18.416,0,0,1,5.443,3.18,27.892,27.892,0,0,1,4.253,4.328A24.583,24.583,0,0,1,16.326,18.2a.394.394,0,0,1-.328.424.411.411,0,0,1-.472-.274Z" transform="translate(0.007 0.002)" fill="#2ceef0"/>
        </g>
      </g>
      <g id="Layer_2-11" data-name="Layer 2" transform="translate(613.555 -6.771)">
        <g id="Object-11" data-name="Object" transform="translate(0)">
          <path id="Path_59" data-name="Path 59" d="M.072,24.115A35.976,35.976,0,0,1,5.79,18.373c1.029-.865,2.066-1.726,3.156-2.512s2.168-1.612,3.291-2.365a83.422,83.422,0,0,1,14.3-7.817A73.307,73.307,0,0,1,42.313,1.037l4.1-.617C47.787.284,49.173.23,50.544.133L52.636,0l2.077.054,4.162.115A1.129,1.129,0,0,1,60,1.306,1.136,1.136,0,0,1,58.809,2.38h-.135l-4.008-.2-2.006-.1-2.01.068c-1.337.068-2.679.09-4.016.19l-3.986.528a71.455,71.455,0,0,0-15.5,4.185A81.856,81.856,0,0,0,12.92,14.41c-1.127.718-2.235,1.461-3.3,2.258s-2.138,1.586-3.174,2.415A37.592,37.592,0,0,0,.786,24.492l-.06.075a.416.416,0,0,1-.564.086.375.375,0,0,1-.09-.538Z" transform="translate(0.004)" fill="#ff0"/>
        </g>
      </g>
      <g id="Layer_2-12" data-name="Layer 2" transform="translate(1153.77 15.42)">
        <g id="Object-12" data-name="Object">
          <path id="Path_60" data-name="Path 60" d="M2.864,12.81,0,31.775l18.727,3.52L21.59,16.331Z" transform="translate(0 -10.742)" fill="#51d5c7"/>
          <path id="Path_61" data-name="Path 61" d="M.693,101.86A13.523,13.523,0,0,0,7.6,106.371a77.621,77.621,0,0,1,9.5,3.423L0,106.447Z" transform="translate(0 -85.415)" fill="#49bfb3"/>
          <path id="Path_62" data-name="Path 62" d="M110.82,42.833,120,40.764,122.864,21.8l-9.181,2.07Z" transform="translate(-92.093 -18.28)" fill="#3a9da8"/>
          <path id="Path_63" data-name="Path 63" d="M35.675,5.589l9.181-2.07L26.129,0,16.95,2.068Z" transform="translate(-14.086)" fill="#032060"/>
        </g>
      </g>
      <g id="Layer_2-13" data-name="Layer 2" transform="translate(727.615)">
        <g id="Object-13" data-name="Object">
          <path id="Path_60-2" data-name="Path 60" d="M2.864,12.81,0,31.775l18.727,3.52L21.59,16.331Z" transform="translate(0 -10.742)" fill="#51d5c7"/>
          <path id="Path_61-2" data-name="Path 61" d="M.693,101.86A13.523,13.523,0,0,0,7.6,106.371a77.621,77.621,0,0,1,9.5,3.423L0,106.447Z" transform="translate(0 -85.415)" fill="#49bfb3"/>
          <path id="Path_62-2" data-name="Path 62" d="M110.82,42.833,120,40.764,122.864,21.8l-9.181,2.07Z" transform="translate(-92.093 -18.28)" fill="#3a9da8"/>
          <path id="Path_63-2" data-name="Path 63" d="M35.675,5.589l9.181-2.07L26.129,0,16.95,2.068Z" transform="translate(-14.086)" fill="#032060"/>
        </g>
      </g>
      <g id="Layer_2-14" data-name="Layer 2" transform="translate(749.172 -6.771)">
        <g id="Object-14" data-name="Object">
          <path id="Path_64" data-name="Path 64" d="M40.035,15.193l20.887-1.769L20.887,0,0,1.769Z" fill="#032060"/>
        </g>
      </g>
      <g id="Layer_2-15" data-name="Layer 2" transform="translate(865 -9.946)">
        <g id="Object-15" data-name="Object">
          <path id="Path_65" data-name="Path 65" d="M0,0S1.961,12.332,9.118,17.461a50.8,50.8,0,0,0,14.242,6.676l-20.41-4.6Z" fill="#ba4f82"/>
        </g>
      </g>
      <g id="Layer_2-16" data-name="Layer 2" transform="translate(1227.617 15.42)">
        <g id="Object-16" data-name="Object">
          <path id="Path_66" data-name="Path 66" d="M73.057,12.81,75.92,31.775l-18.727,3.52L54.33,16.331Z" transform="translate(-45.149 -10.742)" fill="#d778a7"/>
          <path id="Path_67" data-name="Path 67" d="M97.309,101.86a13.523,13.523,0,0,1-6.915,4.511,77.786,77.786,0,0,0-9.494,3.423L98,106.445Z" transform="translate(-67.229 -85.415)" fill="#c75c90"/>
          <path id="Path_68" data-name="Path 68" d="M12.044,42.833l-9.181-2.07L0,21.8l9.181,2.07Z" transform="translate(0 -18.28)" fill="#c75c90"/>
          <path id="Path_69" data-name="Path 69" d="M9.181,5.589,0,3.52,18.727,0l9.181,2.068Z" fill="#032060"/>
        </g>
      </g>
      <g id="Layer_2-17" data-name="Layer 2" transform="translate(644.229 11.447)">
        <g id="Object-17" data-name="Object">
          <path id="Path_66-2" data-name="Path 66" d="M67.514,12.81l2.015,13.351L56.345,28.639,54.33,15.289Z" transform="translate(-47.867 -11.354)" fill="#d778a7"/>
          <path id="Path_67-2" data-name="Path 67" d="M92.451,101.86a9.52,9.52,0,0,1-4.868,3.176,54.759,54.759,0,0,0-6.683,2.41l12.038-2.357Z" transform="translate(-71.276 -90.283)" fill="#c75c90"/>
          <path id="Path_68-2" data-name="Path 68" d="M8.479,36.607,2.015,35.15,0,21.8l6.463,1.457Z" transform="translate(0 -19.322)" fill="#c75c90"/>
          <path id="Path_69-2" data-name="Path 69" d="M6.463,3.935,0,2.478,13.184,0l6.463,1.456Z" fill="#032060"/>
        </g>
      </g>
      <g id="Layer_2-18" data-name="Layer 2" transform="translate(913.34 -6.771)">
        <g id="Object-18" data-name="Object">
          <path id="Path_70" data-name="Path 70" d="M20.887,15.193,0,13.423,40.035,0,60.923,1.769Z" fill="#032060"/>
        </g>
      </g>
      <g id="Layer_2-19" data-name="Layer 2" transform="translate(977.956 -6.771)">
        <g id="Object-19" data-name="Object">
          <path id="Path_71" data-name="Path 71" d="M36.459,21.98a.719.719,0,1,0,.751.718A.735.735,0,0,0,36.459,21.98ZM23.074,18.369a.719.719,0,1,0,.751.718A.735.735,0,0,0,23.074,18.369ZM32,21.98a.719.719,0,1,0,.751.718A.735.735,0,0,0,32,21.98Zm4.463,3.611a.719.719,0,1,0,.751.718A.735.735,0,0,0,36.459,25.59ZM32,14.762a.719.719,0,1,0,.751.718A.735.735,0,0,0,32,14.762ZM32,25.59a.719.719,0,1,0,.751.718A.735.735,0,0,0,32,25.59Zm-4.459,0a.719.719,0,1,0,.751.718.735.735,0,0,0-.751-.718ZM23.074,14.762a.719.719,0,1,0,.751.718A.735.735,0,0,0,23.074,14.762Zm4.463,3.589a.71.71,0,1,1,0,.018Zm0-3.589a.719.719,0,1,0,.751.718.735.735,0,0,0-.751-.718Zm0,7.218a.719.719,0,1,0,.751.718.735.735,0,0,0-.751-.718ZM32,18.369a.719.719,0,1,0,.751.718A.735.735,0,0,0,32,18.369ZM45.385,21.98a.719.719,0,1,0,.751.718A.735.735,0,0,0,45.385,21.98Zm0-3.611a.719.719,0,1,0,.751.718A.735.735,0,0,0,45.385,18.369Zm0,7.221a.719.719,0,1,0,.751.718A.735.735,0,0,0,45.385,25.59Zm4.459,0a.719.719,0,1,0,.751.718A.735.735,0,0,0,49.844,25.59ZM45.385,14.762a.719.719,0,1,0,.751.718A.735.735,0,0,0,45.385,14.762ZM40.922,25.59a.719.719,0,1,0,.751.718A.735.735,0,0,0,40.922,25.59ZM36.459,14.762a.719.719,0,1,0,.751.718A.735.735,0,0,0,36.459,14.762Zm0,3.589a.71.71,0,1,1,0,.018Zm4.463,3.611a.71.71,0,1,1,0,.018Zm0-3.611a.71.71,0,1,1,0,.018ZM.751,18.369a.719.719,0,1,0,0,1.436.719.719,0,1,0,0-1.436Zm4.463,0a.746.746,0,1,0,.011,0ZM23.074,21.98a.719.719,0,1,0,.751.718A.735.735,0,0,0,23.074,21.98Zm-13.385,0a.719.719,0,1,0,.751.718.735.735,0,0,0-.751-.718Zm0,3.611a.719.719,0,1,0,.751.718.735.735,0,0,0-.751-.718ZM5.226,21.98a.719.719,0,1,0,.751.718A.735.735,0,0,0,5.226,21.98Zm44.618,0a.719.719,0,1,0,.751.718A.735.735,0,0,0,49.844,21.98ZM.751,25.59a.719.719,0,1,0,0,1.436.719.719,0,1,0,0-1.436Zm0-3.611a.719.719,0,1,0,0,1.436.719.719,0,1,0,0-1.436Zm8.937-3.611a.719.719,0,1,0,.751.718A.735.735,0,0,0,9.689,18.369ZM.751,14.762a.719.719,0,1,0,0,1.436.719.719,0,1,0,0-1.436ZM5.226,25.59a.719.719,0,1,0,.751.718A.735.735,0,0,0,5.226,25.59Zm0-10.828a.719.719,0,1,0,.751.718.735.735,0,0,0-.751-.718Zm13.385,3.589a.71.71,0,1,1,0,.018Zm0,3.611a.71.71,0,1,1,0,.018Zm-8.922-7.2a.719.719,0,1,0,.751.718A.735.735,0,0,0,9.689,14.762ZM18.611,25.59a.719.719,0,1,0,.751.718A.735.735,0,0,0,18.611,25.59Zm4.463,0a.719.719,0,1,0,.751.718.735.735,0,0,0-.751-.718ZM18.611,14.762a.719.719,0,1,0,.751.718A.735.735,0,0,0,18.611,14.762ZM14.152,21.98a.719.719,0,1,0,.751.718A.735.735,0,0,0,14.152,21.98Zm0,3.611a.719.719,0,1,0,.751.718A.735.735,0,0,0,14.152,25.59Zm0-7.221a.719.719,0,1,0,.751.718A.735.735,0,0,0,14.152,18.369Zm0-3.589a.719.719,0,1,0,.751.718.7.7,0,0,0-.213-.519.769.769,0,0,0-.538-.217Zm26.77,0a.719.719,0,1,0,.751.718.7.7,0,0,0-.213-.519.769.769,0,0,0-.538-.217Zm26.77,0a.719.719,0,1,0,.751.718.7.7,0,0,0-.213-.519.769.769,0,0,0-.538-.217Zm-8.922,7.2a.719.719,0,1,0,.751.718A.735.735,0,0,0,58.77,21.98Zm0,3.611a.719.719,0,1,0,.751.718A.735.735,0,0,0,58.77,25.59Zm8.922-7.221a.719.719,0,1,0,.751.718A.735.735,0,0,0,67.692,18.369Zm-8.922,0a.719.719,0,1,0,.751.718A.735.735,0,0,0,58.77,18.369ZM72.155,25.59a.719.719,0,1,0,.751.718A.735.735,0,0,0,72.155,25.59ZM54.307,14.762a.719.719,0,1,0,.751.718A.735.735,0,0,0,54.307,14.762Zm-4.463,3.589a.71.71,0,1,1,0,.018ZM67.692,25.59a.719.719,0,1,0,.751.718A.735.735,0,0,0,67.692,25.59Zm-4.459-7.221a.719.719,0,1,0,.751.718A.735.735,0,0,0,63.233,18.369Zm0,3.611a.719.719,0,1,0,.751.718A.735.735,0,0,0,63.233,21.98Zm0-7.218a.719.719,0,1,0,.751.718A.735.735,0,0,0,63.233,14.762Zm8.922,7.218a.719.719,0,1,0,.751.718A.735.735,0,0,0,72.155,21.98ZM63.233,25.59a.719.719,0,1,0,.751.718A.735.735,0,0,0,63.233,25.59ZM58.77,14.762a.719.719,0,1,0,.751.718A.735.735,0,0,0,58.77,14.762Zm8.922,7.218a.719.719,0,1,0,.751.718A.735.735,0,0,0,67.692,21.98Zm4.463-7.218a.719.719,0,1,0,.751.718A.735.735,0,0,0,72.155,14.762ZM54.307,18.351a.71.71,0,1,1,0,.018Zm0,7.221a.71.71,0,1,1,0,.018Zm-4.463-10.81a.719.719,0,1,0,.751.718A.735.735,0,0,0,49.844,14.762Zm22.311,3.589a.71.71,0,1,1,0,.018ZM54.307,21.98a.719.719,0,1,0,.751.718A.735.735,0,0,0,54.307,21.98ZM14.152,10.832a.719.719,0,1,0,.751.718A.735.735,0,0,0,14.152,10.832Zm49.081,0a.719.719,0,1,0,.751.718.735.735,0,0,0-.751-.718ZM14.152,3.611a.719.719,0,1,0,.751.718A.735.735,0,0,0,14.152,3.611Zm0-3.611A.735.735,0,0,0,13.4.718a.752.752,0,0,0,1.5,0A.735.735,0,0,0,14.152,0Zm58,7.221a.719.719,0,1,0,.751.718.735.735,0,0,0-.751-.718ZM63.233,0a.735.735,0,0,0-.751.718.752.752,0,0,0,1.5,0A.735.735,0,0,0,63.233,0Zm8.922,1.461a.735.735,0,0,0,.751-.718.752.752,0,0,0-1.5,0A.735.735,0,0,0,72.155,1.461ZM63.233,3.614a.719.719,0,1,0,.751.718.7.7,0,0,0-.219-.51.769.769,0,0,0-.533-.212Zm8.922,7.221a.719.719,0,1,0,.751.718.7.7,0,0,0-.219-.51.769.769,0,0,0-.533-.212ZM9.689,8.682a.719.719,0,1,0-.751-.718.735.735,0,0,0,.751.718Zm0,3.607a.719.719,0,1,0-.751-.718.735.735,0,0,0,.751.718ZM72.155,3.611a.719.719,0,1,0,.751.718A.735.735,0,0,0,72.155,3.611ZM63.233,7.221a.719.719,0,1,0,.751.718A.735.735,0,0,0,63.233,7.221Zm-49.081,0a.719.719,0,1,0,.751.718.735.735,0,0,0-.751-.718ZM5.226,3.611a.719.719,0,1,0,.751.718A.735.735,0,0,0,5.226,3.611ZM5.226,0a.735.735,0,0,0-.751.718.752.752,0,0,0,1.5,0A.735.735,0,0,0,5.226,0ZM67.692,3.611a.719.719,0,1,0,.751.718A.735.735,0,0,0,67.692,3.611Zm0-3.611a.735.735,0,0,0-.751.718.752.752,0,0,0,1.5,0A.735.735,0,0,0,67.692,0Zm0,7.221a.719.719,0,1,0,.751.718A.735.735,0,0,0,67.692,7.221ZM5.226,10.832a.719.719,0,1,0,.751.718A.735.735,0,0,0,5.226,10.832Zm0-3.611a.719.719,0,1,0,.751.718A.735.735,0,0,0,5.226,7.221Zm62.467,3.611a.719.719,0,1,0,.751.718A.735.735,0,0,0,67.692,10.832Zm-58-7.221a.719.719,0,1,0,.751.718A.735.735,0,0,0,9.689,3.611ZM.751,10.832a.719.719,0,1,0,0,1.436.719.719,0,1,0,0-1.436ZM9.689,0a.735.735,0,0,0-.751.718.752.752,0,0,0,1.5,0A.735.735,0,0,0,9.689,0ZM.751,3.611a.719.719,0,1,0,0,1.436.719.719,0,1,0,0-1.436Zm0,3.611a.719.719,0,1,0,0,1.436.719.719,0,1,0,0-1.436ZM.751,0A.735.735,0,0,0,0,.718a.735.735,0,0,0,.751.718A.735.735,0,0,0,1.5.718.735.735,0,0,0,.751,0ZM18.611,10.832a.719.719,0,1,0,.751.718A.735.735,0,0,0,18.611,10.832Zm35.689,0a.748.748,0,1,0,.007,0ZM36.459,3.611a.719.719,0,1,0,.751.718A.735.735,0,0,0,36.459,3.611Zm0-3.611a.735.735,0,0,0-.751.718.752.752,0,0,0,1.5,0A.735.735,0,0,0,36.459,0ZM49.844,0a.735.735,0,0,0-.751.718.752.752,0,0,0,1.5,0A.735.735,0,0,0,49.844,0ZM40.922,10.832a.719.719,0,1,0,.751.718A.735.735,0,0,0,40.922,10.832ZM54.307,7.221a.719.719,0,1,0,.751.718A.735.735,0,0,0,54.307,7.221Zm-13.385,0a.719.719,0,1,0,.751.718.735.735,0,0,0-.751-.718ZM54.307,3.611a.719.719,0,1,0,.751.718.735.735,0,0,0-.751-.718ZM36.459,10.832a.719.719,0,1,0,.751.718A.735.735,0,0,0,36.459,10.832Zm0-3.611a.719.719,0,1,0,.751.718A.735.735,0,0,0,36.459,7.221Zm4.463-3.611a.719.719,0,1,0,.751.718.735.735,0,0,0-.751-.718ZM18.611,7.221a.719.719,0,1,0,.751.718A.735.735,0,0,0,18.611,7.221ZM45.385,3.611a.719.719,0,1,0,.751.718A.735.735,0,0,0,45.385,3.611Zm0,3.611a.719.719,0,1,0,.751.718A.735.735,0,0,0,45.385,7.221ZM32,0a.735.735,0,0,0-.751.718.752.752,0,0,0,1.5,0A.735.735,0,0,0,32,0ZM45.385,0a.735.735,0,0,0-.751.718.752.752,0,0,0,1.5,0A.735.735,0,0,0,45.385,0ZM40.922,0a.735.735,0,0,0-.751.718.752.752,0,0,0,1.5,0A.735.735,0,0,0,40.922,0Zm8.922,3.611a.719.719,0,1,0,.751.718A.735.735,0,0,0,49.844,3.611Zm0,7.221a.719.719,0,1,0,.751.718A.735.735,0,0,0,49.844,10.832Zm0-3.611a.719.719,0,1,0,.751.718A.735.735,0,0,0,49.844,7.221Zm-4.459,3.611a.719.719,0,1,0,.751.718A.735.735,0,0,0,45.385,10.832ZM23.074,7.221a.719.719,0,1,0,.751.718A.735.735,0,0,0,23.074,7.221Zm0-7.221a.735.735,0,0,0-.751.718.752.752,0,0,0,1.5,0A.735.735,0,0,0,23.074,0Zm0,3.611a.719.719,0,1,0,.751.718A.735.735,0,0,0,23.074,3.611Zm35.689,0a.748.748,0,1,0,.007,0ZM18.611,0a.735.735,0,0,0-.751.718.752.752,0,0,0,1.5,0A.735.735,0,0,0,18.611,0ZM58.77,7.221a.719.719,0,1,0,.751.718A.735.735,0,0,0,58.77,7.221ZM18.611,3.611a.719.719,0,1,0,.751.718A.735.735,0,0,0,18.611,3.611ZM58.77,0a.735.735,0,0,0-.751.718.752.752,0,0,0,1.5,0A.735.735,0,0,0,58.77,0ZM23.081,10.832a.719.719,0,1,0,.751.718.7.7,0,0,0-.223-.51.77.77,0,0,0-.536-.208Zm4.455-7.221a.719.719,0,1,0,.751.718A.735.735,0,0,0,27.537,3.611ZM58.77,10.832a.719.719,0,1,0,.751.718A.735.735,0,0,0,58.77,10.832ZM32,10.832a.719.719,0,1,0,.751.718A.735.735,0,0,0,32,10.832Zm0-3.611a.719.719,0,1,0,.751.718A.735.735,0,0,0,32,7.221ZM27.537,0a.735.735,0,0,0-.751.718.752.752,0,0,0,1.5,0A.735.735,0,0,0,27.537,0Zm26.77,0a.735.735,0,0,0-.751.718.752.752,0,0,0,1.5,0A.735.735,0,0,0,54.307,0ZM27.537,10.832a.719.719,0,1,0,.751.718A.735.735,0,0,0,27.537,10.832Zm0-3.611a.719.719,0,1,0,.751.718A.735.735,0,0,0,27.537,7.221ZM32,3.611a.719.719,0,1,0,.751.718A.735.735,0,0,0,32,3.611Z" fill="#d99426"/>
        </g>
      </g>
      <g id="Layer_2-20" data-name="Layer 2" transform="translate(1054.593 -6.771)">
        <g id="Object-20" data-name="Object">
          <path id="Path_72" data-name="Path 72" d="M18.817,5.545l-12,6.1L0,0,2.2.6,7.4,9.691,18.611,4.2Z" fill="#99466e"/>
        </g>
      </g>
      <g id="Layer_2-21" data-name="Layer 2" transform="translate(1077.133 -6.771)">
        <g id="Object-21" data-name="Object">
          <path id="Path_73" data-name="Path 73" d="M36.459,21.98a.719.719,0,1,0,.751.718A.735.735,0,0,0,36.459,21.98ZM23.074,18.369a.719.719,0,1,0,.751.718A.735.735,0,0,0,23.074,18.369ZM32,21.98a.719.719,0,1,0,.751.718A.735.735,0,0,0,32,21.98Zm4.463,3.611a.719.719,0,1,0,.751.718A.735.735,0,0,0,36.459,25.59ZM32,14.762a.719.719,0,1,0,.751.718A.735.735,0,0,0,32,14.762ZM32,25.59a.719.719,0,1,0,.751.718A.735.735,0,0,0,32,25.59Zm-4.459,0a.719.719,0,1,0,.751.718.735.735,0,0,0-.751-.718ZM23.074,14.762a.719.719,0,1,0,.751.718A.735.735,0,0,0,23.074,14.762Zm4.463,3.589a.71.71,0,1,1,0,.018Zm0-3.589a.719.719,0,1,0,.751.718.735.735,0,0,0-.751-.718Zm0,7.218a.719.719,0,1,0,.751.718.735.735,0,0,0-.751-.718ZM32,18.369a.719.719,0,1,0,.751.718A.735.735,0,0,0,32,18.369ZM45.385,21.98a.719.719,0,1,0,.751.718A.735.735,0,0,0,45.385,21.98Zm0-3.611a.719.719,0,1,0,.751.718A.735.735,0,0,0,45.385,18.369Zm0,7.221a.719.719,0,1,0,.751.718A.735.735,0,0,0,45.385,25.59Zm4.459,0a.719.719,0,1,0,.751.718A.735.735,0,0,0,49.844,25.59ZM45.385,14.762a.719.719,0,1,0,.751.718A.735.735,0,0,0,45.385,14.762ZM40.922,25.59a.719.719,0,1,0,.751.718A.735.735,0,0,0,40.922,25.59ZM36.459,14.762a.719.719,0,1,0,.751.718A.735.735,0,0,0,36.459,14.762Zm0,3.589a.71.71,0,1,1,0,.018Zm4.463,3.611a.71.71,0,1,1,0,.018Zm0-3.611a.71.71,0,1,1,0,.018ZM.751,18.369a.719.719,0,1,0,0,1.436.719.719,0,1,0,0-1.436Zm4.463,0a.746.746,0,1,0,.011,0ZM23.074,21.98a.719.719,0,1,0,.751.718A.735.735,0,0,0,23.074,21.98Zm-13.385,0a.719.719,0,1,0,.751.718.735.735,0,0,0-.751-.718Zm0,3.611a.719.719,0,1,0,.751.718.735.735,0,0,0-.751-.718ZM5.226,21.98a.719.719,0,1,0,.751.718A.735.735,0,0,0,5.226,21.98Zm44.618,0a.719.719,0,1,0,.751.718A.735.735,0,0,0,49.844,21.98ZM.751,25.59a.719.719,0,1,0,0,1.436.719.719,0,1,0,0-1.436Zm0-3.611a.719.719,0,1,0,0,1.436.719.719,0,1,0,0-1.436Zm8.937-3.611a.719.719,0,1,0,.751.718A.735.735,0,0,0,9.689,18.369ZM.751,14.762a.719.719,0,1,0,0,1.436.719.719,0,1,0,0-1.436ZM5.226,25.59a.719.719,0,1,0,.751.718A.735.735,0,0,0,5.226,25.59Zm0-10.828a.719.719,0,1,0,.751.718.735.735,0,0,0-.751-.718Zm13.385,3.589a.71.71,0,1,1,0,.018Zm0,3.611a.71.71,0,1,1,0,.018Zm-8.922-7.2a.719.719,0,1,0,.751.718A.735.735,0,0,0,9.689,14.762ZM18.611,25.59a.719.719,0,1,0,.751.718A.735.735,0,0,0,18.611,25.59Zm4.463,0a.719.719,0,1,0,.751.718.735.735,0,0,0-.751-.718ZM18.611,14.762a.719.719,0,1,0,.751.718A.735.735,0,0,0,18.611,14.762ZM14.152,21.98a.719.719,0,1,0,.751.718A.735.735,0,0,0,14.152,21.98Zm0,3.611a.719.719,0,1,0,.751.718A.735.735,0,0,0,14.152,25.59Zm0-7.221a.719.719,0,1,0,.751.718A.735.735,0,0,0,14.152,18.369Zm0-3.589a.719.719,0,1,0,.751.718.7.7,0,0,0-.213-.519.769.769,0,0,0-.538-.217Zm26.77,0a.719.719,0,1,0,.751.718.7.7,0,0,0-.213-.519.769.769,0,0,0-.538-.217Zm26.77,0a.719.719,0,1,0,.751.718.7.7,0,0,0-.213-.519.769.769,0,0,0-.538-.217Zm-8.922,7.2a.719.719,0,1,0,.751.718A.735.735,0,0,0,58.77,21.98Zm0,3.611a.719.719,0,1,0,.751.718A.735.735,0,0,0,58.77,25.59Zm8.922-7.221a.719.719,0,1,0,.751.718A.735.735,0,0,0,67.692,18.369Zm-8.922,0a.719.719,0,1,0,.751.718A.735.735,0,0,0,58.77,18.369ZM72.155,25.59a.719.719,0,1,0,.751.718A.735.735,0,0,0,72.155,25.59ZM54.307,14.762a.719.719,0,1,0,.751.718A.735.735,0,0,0,54.307,14.762Zm-4.463,3.589a.71.71,0,1,1,0,.018ZM67.692,25.59a.719.719,0,1,0,.751.718A.735.735,0,0,0,67.692,25.59Zm-4.459-7.221a.719.719,0,1,0,.751.718A.735.735,0,0,0,63.233,18.369Zm0,3.611a.719.719,0,1,0,.751.718A.735.735,0,0,0,63.233,21.98Zm0-7.218a.719.719,0,1,0,.751.718A.735.735,0,0,0,63.233,14.762Zm8.922,7.218a.719.719,0,1,0,.751.718A.735.735,0,0,0,72.155,21.98ZM63.233,25.59a.719.719,0,1,0,.751.718A.735.735,0,0,0,63.233,25.59ZM58.77,14.762a.719.719,0,1,0,.751.718A.735.735,0,0,0,58.77,14.762Zm8.922,7.218a.719.719,0,1,0,.751.718A.735.735,0,0,0,67.692,21.98Zm4.463-7.218a.719.719,0,1,0,.751.718A.735.735,0,0,0,72.155,14.762ZM54.307,18.351a.71.71,0,1,1,0,.018Zm0,7.221a.71.71,0,1,1,0,.018Zm-4.463-10.81a.719.719,0,1,0,.751.718A.735.735,0,0,0,49.844,14.762Zm22.311,3.589a.71.71,0,1,1,0,.018ZM54.307,21.98a.719.719,0,1,0,.751.718A.735.735,0,0,0,54.307,21.98ZM14.152,10.832a.719.719,0,1,0,.751.718A.735.735,0,0,0,14.152,10.832Zm49.081,0a.719.719,0,1,0,.751.718.735.735,0,0,0-.751-.718ZM14.152,3.611a.719.719,0,1,0,.751.718A.735.735,0,0,0,14.152,3.611Zm0-3.611A.735.735,0,0,0,13.4.718a.752.752,0,0,0,1.5,0A.735.735,0,0,0,14.152,0Zm58,7.221a.719.719,0,1,0,.751.718.735.735,0,0,0-.751-.718ZM63.233,0a.735.735,0,0,0-.751.718.752.752,0,0,0,1.5,0A.735.735,0,0,0,63.233,0Zm8.922,1.461a.735.735,0,0,0,.751-.718.752.752,0,0,0-1.5,0A.735.735,0,0,0,72.155,1.461ZM63.233,3.614a.719.719,0,1,0,.751.718.7.7,0,0,0-.219-.51.769.769,0,0,0-.533-.212Zm8.922,7.221a.719.719,0,1,0,.751.718.7.7,0,0,0-.219-.51.769.769,0,0,0-.533-.212ZM9.689,8.682a.719.719,0,1,0-.751-.718.735.735,0,0,0,.751.718Zm0,3.607a.719.719,0,1,0-.751-.718.735.735,0,0,0,.751.718ZM72.155,3.611a.719.719,0,1,0,.751.718A.735.735,0,0,0,72.155,3.611ZM63.233,7.221a.719.719,0,1,0,.751.718A.735.735,0,0,0,63.233,7.221Zm-49.081,0a.719.719,0,1,0,.751.718.735.735,0,0,0-.751-.718ZM5.226,3.611a.719.719,0,1,0,.751.718A.735.735,0,0,0,5.226,3.611ZM5.226,0a.735.735,0,0,0-.751.718.752.752,0,0,0,1.5,0A.735.735,0,0,0,5.226,0ZM67.692,3.611a.719.719,0,1,0,.751.718A.735.735,0,0,0,67.692,3.611Zm0-3.611a.735.735,0,0,0-.751.718.752.752,0,0,0,1.5,0A.735.735,0,0,0,67.692,0Zm0,7.221a.719.719,0,1,0,.751.718A.735.735,0,0,0,67.692,7.221ZM5.226,10.832a.719.719,0,1,0,.751.718A.735.735,0,0,0,5.226,10.832Zm0-3.611a.719.719,0,1,0,.751.718A.735.735,0,0,0,5.226,7.221Zm62.467,3.611a.719.719,0,1,0,.751.718A.735.735,0,0,0,67.692,10.832Zm-58-7.221a.719.719,0,1,0,.751.718A.735.735,0,0,0,9.689,3.611ZM.751,10.832a.719.719,0,1,0,0,1.436.719.719,0,1,0,0-1.436ZM9.689,0a.735.735,0,0,0-.751.718.752.752,0,0,0,1.5,0A.735.735,0,0,0,9.689,0ZM.751,3.611a.719.719,0,1,0,0,1.436.719.719,0,1,0,0-1.436Zm0,3.611a.719.719,0,1,0,0,1.436.719.719,0,1,0,0-1.436ZM.751,0A.735.735,0,0,0,0,.718a.735.735,0,0,0,.751.718A.735.735,0,0,0,1.5.718.735.735,0,0,0,.751,0ZM18.611,10.832a.719.719,0,1,0,.751.718A.735.735,0,0,0,18.611,10.832Zm35.689,0a.748.748,0,1,0,.007,0ZM36.459,3.611a.719.719,0,1,0,.751.718A.735.735,0,0,0,36.459,3.611Zm0-3.611a.735.735,0,0,0-.751.718.752.752,0,0,0,1.5,0A.735.735,0,0,0,36.459,0ZM49.844,0a.735.735,0,0,0-.751.718.752.752,0,0,0,1.5,0A.735.735,0,0,0,49.844,0ZM40.922,10.832a.719.719,0,1,0,.751.718A.735.735,0,0,0,40.922,10.832ZM54.307,7.221a.719.719,0,1,0,.751.718A.735.735,0,0,0,54.307,7.221Zm-13.385,0a.719.719,0,1,0,.751.718.735.735,0,0,0-.751-.718ZM54.307,3.611a.719.719,0,1,0,.751.718.735.735,0,0,0-.751-.718ZM36.459,10.832a.719.719,0,1,0,.751.718A.735.735,0,0,0,36.459,10.832Zm0-3.611a.719.719,0,1,0,.751.718A.735.735,0,0,0,36.459,7.221Zm4.463-3.611a.719.719,0,1,0,.751.718.735.735,0,0,0-.751-.718ZM18.611,7.221a.719.719,0,1,0,.751.718A.735.735,0,0,0,18.611,7.221ZM45.385,3.611a.719.719,0,1,0,.751.718A.735.735,0,0,0,45.385,3.611Zm0,3.611a.719.719,0,1,0,.751.718A.735.735,0,0,0,45.385,7.221ZM32,0a.735.735,0,0,0-.751.718.752.752,0,0,0,1.5,0A.735.735,0,0,0,32,0ZM45.385,0a.735.735,0,0,0-.751.718.752.752,0,0,0,1.5,0A.735.735,0,0,0,45.385,0ZM40.922,0a.735.735,0,0,0-.751.718.752.752,0,0,0,1.5,0A.735.735,0,0,0,40.922,0Zm8.922,3.611a.719.719,0,1,0,.751.718A.735.735,0,0,0,49.844,3.611Zm0,7.221a.719.719,0,1,0,.751.718A.735.735,0,0,0,49.844,10.832Zm0-3.611a.719.719,0,1,0,.751.718A.735.735,0,0,0,49.844,7.221Zm-4.459,3.611a.719.719,0,1,0,.751.718A.735.735,0,0,0,45.385,10.832ZM23.074,7.221a.719.719,0,1,0,.751.718A.735.735,0,0,0,23.074,7.221Zm0-7.221a.735.735,0,0,0-.751.718.752.752,0,0,0,1.5,0A.735.735,0,0,0,23.074,0Zm0,3.611a.719.719,0,1,0,.751.718A.735.735,0,0,0,23.074,3.611Zm35.689,0a.748.748,0,1,0,.007,0ZM18.611,0a.735.735,0,0,0-.751.718.752.752,0,0,0,1.5,0A.735.735,0,0,0,18.611,0ZM58.77,7.221a.719.719,0,1,0,.751.718A.735.735,0,0,0,58.77,7.221ZM18.611,3.611a.719.719,0,1,0,.751.718A.735.735,0,0,0,18.611,3.611ZM58.77,0a.735.735,0,0,0-.751.718.752.752,0,0,0,1.5,0A.735.735,0,0,0,58.77,0ZM23.081,10.832a.719.719,0,1,0,.751.718.7.7,0,0,0-.223-.51.77.77,0,0,0-.536-.208Zm4.455-7.221a.719.719,0,1,0,.751.718A.735.735,0,0,0,27.537,3.611ZM58.77,10.832a.719.719,0,1,0,.751.718A.735.735,0,0,0,58.77,10.832ZM32,10.832a.719.719,0,1,0,.751.718A.735.735,0,0,0,32,10.832Zm0-3.611a.719.719,0,1,0,.751.718A.735.735,0,0,0,32,7.221ZM27.537,0a.735.735,0,0,0-.751.718.752.752,0,0,0,1.5,0A.735.735,0,0,0,27.537,0Zm26.77,0a.735.735,0,0,0-.751.718.752.752,0,0,0,1.5,0A.735.735,0,0,0,54.307,0ZM27.537,10.832a.719.719,0,1,0,.751.718A.735.735,0,0,0,27.537,10.832Zm0-3.611a.719.719,0,1,0,.751.718A.735.735,0,0,0,27.537,7.221ZM32,3.611a.719.719,0,1,0,.751.718A.735.735,0,0,0,32,3.611Z" fill="#0676d0"/>
        </g>
      </g>
      <g id="Layer_2-22" data-name="Layer 2" transform="translate(1153.77 -6.771)">
        <g id="Object-22" data-name="Object" transform="translate(0 0)">
          <ellipse id="Ellipse_8" data-name="Ellipse 8" cx="4.655" cy="4.447" rx="4.655" ry="4.447" fill="#ebebeb"/>
        </g>
      </g>
      <g id="Layer_2-23" data-name="Layer 2" transform="translate(1215.259 4.875)">
        <g id="Object-23" data-name="Object" transform="translate(0 0)">
          <path id="Path_75" data-name="Path 75" d="M0,26.9a25.714,25.714,0,0,0,1.041,7.211h9.069A18.064,18.064,0,0,1,13.9,14.065a20.2,20.2,0,0,1,20.72-4.823V.7A29.146,29.146,0,0,0,10.664,5.787,26.448,26.448,0,0,0,0,26.9Z" transform="translate(0 0.022)" fill="#7419ac"/>
        </g>
      </g>
      <g id="Layer_2-24" data-name="Layer 2" transform="translate(1253.577 4.875)">
        <g id="Object-24" data-name="Object">
          <path id="Path_76" data-name="Path 76" d="M34.622,7.228A25.714,25.714,0,0,0,33.581,0H24.513a17.88,17.88,0,0,1,1.525,7.228c-.012,10.322-8.768,18.687-19.572,18.7A20.328,20.328,0,0,1,0,24.872V33.4a29.267,29.267,0,0,0,6.465.718c15.543-.01,28.142-12.043,28.157-26.893Z" fill="#7419ac"/>
        </g>
      </g>
      <g id="Layer_2-25" data-name="Layer 2" transform="translate(1304.614 10.618)">
        <g id="Object-25" data-name="Object" transform="translate(0 0)">
          <path id="Path_88" data-name="Path 88" d="M3.695,0A3.844,3.844,0,0,1,7.509,3.7,3.555,3.555,0,0,1,3.815,7.272,3.844,3.844,0,0,1,0,3.576,3.555,3.555,0,0,1,3.695,0Z" transform="translate(0 2.892) rotate(-22.65)" fill="#ebebeb"/>
        </g>
      </g>
      <g id="Layer_2-26" data-name="Layer 2" transform="translate(1328.724 7.256)">
        <g id="Object-26" data-name="Object" transform="translate(0 0)">
          <path id="Path_78" data-name="Path 78" d="M11.969,8.178A6.578,6.578,0,0,1,6.221,4.772c-.128-.244-.237-.5-.346-.743A6.57,6.57,0,0,0,5.5,3.261,5.756,5.756,0,0,0,.041.426L0,.038A6.113,6.113,0,0,1,5.883,3.085c.139.258.255.531.376.793s.21.485.331.718a6.166,6.166,0,0,0,5.383,3.191h0v.391Z" transform="translate(0 -0.015)" fill="#ff0"/>
        </g>
      </g>
      <g id="Layer_2-27" data-name="Layer 2" transform="translate(1341.555 15.42)">
        <g id="Object-27" data-name="Object" transform="translate(0 0)">
          <path id="Path_89" data-name="Path 89" d="M6.078,0a6.572,6.572,0,0,1,6.36,6.36,5.887,5.887,0,0,1-6.076,6.076A6.572,6.572,0,0,1,0,6.078,5.887,5.887,0,0,1,6.078,0Z" transform="translate(0 8.796) rotate(-45)" fill="#ebebeb"/>
        </g>
      </g>
      <g id="Layer_2-28" data-name="Layer 2" transform="translate(1364.146 -6.771)">
        <g id="Object-28" data-name="Object">
          <path id="Path_79" data-name="Path 79" d="M18.161,15.374,14.78,4.725h.038L25.231,1.15v.039L28.586,11.8h-.038ZM14.9,4.775l3.317,10.491,10.267-3.521L25.175,1.258Z" transform="translate(-9.228 -0.737)" fill="#3a9da8"/>
          <path id="Path_80" data-name="Path 80" d="M9.253,20.957H9.189l-5.44-.431V20.5L.38,9.87l5.511.431v.029Zm-5.436-.51,5.323.416L5.827,10.38.5,9.963Z" transform="translate(-0.237 -6.328)" fill="#3a9da8"/>
          <path id="Path_81" data-name="Path 81" d="M5.635,4.056h0L0,3.614,10.553,0h0l5.635.438ZM.409,3.564l5.226.406L15.778.492,10.564.083Z" fill="#3a9da8"/>
        </g>
      </g>
      <g id="Layer_2-29" data-name="Layer 2" transform="translate(81.98 -6.771)">
        <g id="Object-29" data-name="Object" transform="translate(0 0)">
          <path id="Path_5" data-name="Path 5" d="M6.424,1.883,0,8.483,4.546.587A1.2,1.2,0,0,1,6.133.147a1.091,1.091,0,0,1,.46,1.516,1.106,1.106,0,0,1-.169.219Z" transform="translate(0 -0.009)" fill="#ff0"/>
        </g>
      </g>
      <g id="Layer_2-30" data-name="Layer 2" transform="translate(103.017 -6.771)">
        <g id="Object-30" data-name="Object" transform="translate(0)">
          <path id="Path_7" data-name="Path 7" d="M9.875,0,2.046,8.564A1.2,1.2,0,0,1,.4,8.669,1.079,1.079,0,0,1,.292,7.1a1.053,1.053,0,0,1,.165-.147Z" transform="translate(-0.004)" fill="#2ceef0"/>
        </g>
      </g>
      <g id="Layer_2-31" data-name="Layer 2" transform="translate(248.778 -6.771)">
        <g id="Object-31" data-name="Object">
          <path id="Path_24" data-name="Path 24" d="M10.33,20.676,14.947,10.39h.038l10.425,3.693v.039L20.8,24.37h-.041ZM15,10.494,10.45,20.63l10.3,3.618,4.546-10.132Z" transform="translate(-6.449 -6.661)" fill="#d778a7"/>
          <path id="Path_25" data-name="Path 25" d="M3.956,14.123l-.045-.043L0,10.384v-.025L4.617.09,8.573,3.83v.025ZM.105,10.366l3.821,3.611L8.468,3.848,4.647.237Z" transform="translate(0 -0.058)" fill="#d778a7"/>
          <path id="Path_26" data-name="Path 26" d="M15.908,3.815h0L11.87,0,22.438,3.736h0l4.05,3.8ZM12.219.212l3.757,3.532L26.157,7.333,22.4,3.8Z" transform="translate(-7.411)" fill="#d778a7"/>
        </g>
      </g>
      <g id="Layer_2-32" data-name="Layer 2" transform="translate(190.451 2.136)">
        <g id="Object-32" data-name="Object" transform="translate(0 0)">
          <path id="Path_12" data-name="Path 12" d="M66.891,88.9l-3.617,4.373L36.23,78.491l3.617-4.371Z" transform="translate(-26.97 -56.02)" fill="#51d5c7"/>
          <path id="Path_13" data-name="Path 13" d="M9.982,41.57.97,29.641,4.587,25.27,13.6,37.2Z" transform="translate(-0.722 -19.099)" fill="#3a9da8"/>
          <path id="Path_14" data-name="Path 14" d="M24.132,37.2,15.12,25.27,42.164,40.051l9.012,11.929Z" transform="translate(-11.255 -19.099)" fill="#4eccbf"/>
          <path id="Path_15" data-name="Path 15" d="M81.626,94.52s-1.986,3.047-1.39,5.582l1.278.7a26.38,26.38,0,0,1,.912-5.861Z" transform="translate(-59.645 -71.439)" fill="#3a9da8"/>
          <path id="Path_16" data-name="Path 16" d="M86.248,96.3s-2.121,9.279-.184,11.313l7.157,3.089s-.912-7.951,1.608-9.714Z" transform="translate(-63.46 -72.784)" fill="#ebebeb"/>
          <path id="Path_17" data-name="Path 17" d="M57.5,48.18l8.092,11.75,8.578,4.688L65.487,52.546Z" transform="translate(-42.804 -36.414)" fill="#fff"/>
          <path id="Path_18" data-name="Path 18" d="M2.461,55.16S1.278,56.5,0,56.249l3.921,5,2.443-.923Z" transform="translate(0 -41.69)" fill="#ebebeb"/>
          <path id="Path_19" data-name="Path 19" d="M39.462,16.495c-.271-.181-.555-.376-.854-.584-3.992-2.786-6.27-10.1-5.053-13.53A3.365,3.365,0,0,1,36.878,0c2.865.061,3.959,3.326,5.362,7.462s3.123,9.26,6.541,10.349l-1.043,3a8.425,8.425,0,0,1-3.213-1.9C43.649,18.861,42.2,18.329,39.462,16.495ZM36.791,3.172A3.334,3.334,0,0,0,36.535,5.1c.212,2.776,1.863,6.752,4.026,8.258l.511.347a55.172,55.172,0,0,1-1.981-5.274C38.45,6.527,37.494,3.687,36.791,3.172Z" transform="translate(-24.735 0.003)" fill="#fff"/>
          <path id="Path_20" data-name="Path 20" d="M65.48,60.782a5.236,5.236,0,0,0,1.863.547,46.093,46.093,0,0,1-3.463-5.2A12.252,12.252,0,0,0,65.48,60.782Z" transform="translate(-47.553 -42.423)" fill="#dbdbdb"/>
          <path id="Path_21" data-name="Path 21" d="M40.9,5.54A4.054,4.054,0,0,0,38.75,3.13a6.819,6.819,0,0,1,1.907,4.337Z" transform="translate(-28.846 -2.365)" fill="#dbdbdb"/>
          <path id="Path_22" data-name="Path 22" d="M80.9,62.467a8.607,8.607,0,0,1-3.555-1.221L79.155,58.6c3.013,1.888,8.3,0,12.555-1.512s7.627-2.718,9.457-.615a3.127,3.127,0,0,1,.11,3.978c-2.063,3.035-9.482,5.86-14.247,4.6-.355-.1-.69-.188-1.007-.278C82.8,63.852,81.475,63.1,80.9,62.467ZM92.867,60.05c-1.746.623-3.64,1.3-5.557,1.79l.6.164c2.579.686,6.873-.535,9.265-2.1,1.056-.693,1.388-1.221,1.429-1.377C97.751,58.306,94.825,59.351,92.867,60.05Z" transform="translate(-57.573 -41.833)" fill="#fff"/>
          <path id="Path_23" data-name="Path 23" d="M92.853,83.615a5.1,5.1,0,0,1-1.6-1.057,50.589,50.589,0,0,0,6.415-.628A13.636,13.636,0,0,1,92.853,83.615Z" transform="translate(-67.927 -61.923)" fill="#dbdbdb"/>
        </g>
      </g>
      <g id="Layer_2-33" data-name="Layer 2" transform="translate(369.8 10.937)">
        <g id="Object-33" data-name="Object">
          <path id="Path_44" data-name="Path 44" d="M81.47,0l2.6,4.495L61.287,21.179l-2.6-4.493Z" transform="translate(-44.87)" fill="#d778a7"/>
          <path id="Path_45" data-name="Path 45" d="M90.41,47.641s2.946,2.742,4.71,2.938l1.034-.758L91.288,47Z" transform="translate(-69.12 -36.426)" fill="#ba4f82"/>
          <path id="Path_46" data-name="Path 46" d="M16.418,78.663,2.6,81.729,0,77.234,13.82,74.17Z" transform="translate(0 -57.484)" fill="#c75c90"/>
          <path id="Path_47" data-name="Path 47" d="M13.82,16.686,0,19.75,22.78,3.066,36.6,0Z" fill="#ba4f82"/>
          <path id="Path_48" data-name="Path 48" d="M17.96,23.765l4.6-1.021L43.851,6.39l-4.6,1.021Z" transform="translate(-13.731 -4.952)" fill="#fff"/>
          <path id="Path_49" data-name="Path 49" d="M49.88,52.612l4.375-.848.916-.7-4.262.76Z" transform="translate(-38.134 -39.573)" fill="#ebebeb"/>
          <path id="Path_50" data-name="Path 50" d="M79.78,28.5l4.375-.846.918-.7-4.265.76Z" transform="translate(-60.993 -20.887)" fill="#ebebeb"/>
          <path id="Path_51" data-name="Path 51" d="M94.14,28.764s7.5,5.021,9.994,4.178c0,0-1.841-2.868,1.06-2.907,4.239-.052,4.239-1.8,4.239-1.8s-7.4-2.09-8.068-4.765Z" transform="translate(-71.972 -18.19)" fill="#ebebeb"/>
          <path id="Path_52" data-name="Path 52" d="M37.52,31.134l13.333-2.38,7.225-5.294-13.83,2.747Z" transform="translate(-28.685 -18.182)" fill="#fff"/>
          <path id="Path_53" data-name="Path 53" d="M17.96,80.1l1.995,4.63,4.9-1.066-2.3-4.585Z" transform="translate(-13.731 -61.289)" fill="#ebebeb"/>
          <path id="Path_54" data-name="Path 54" d="M23.9,100.55s.666,1.991-.779,2.817a2,2,0,0,0,2.484-.259c1-1.159,3.2,1.222,3.2,1.222s1.081-3.483,0-4.839Z" transform="translate(-17.676 -77.107)" fill="#ebebeb"/>
        </g>
      </g>
      <g id="Layer_2-34" data-name="Layer 2" transform="translate(1322.06 25.229)">
        <g id="Object-34" data-name="Object" transform="translate(0 0)">
          <ellipse id="Ellipse_10" data-name="Ellipse 10" cx="3.332" cy="3.184" rx="3.332" ry="3.184" fill="#ebebeb"/>
        </g>
      </g>
      <g id="Layer_2-35" data-name="Layer 2" transform="translate(1021.062 19.229)">
        <g id="Object-35" data-name="Object">
          <path id="Path_82" data-name="Path 82" d="M26.646,22.518,21.71,6.917l.06-.018L37,1.68l.019.061,4.914,15.541-.056.018ZM21.868,6.992,26.729,22.36l15.046-5.154L36.917,1.838Z" transform="translate(-13.554 -1.077)" fill="#3a9da8"/>
          <path id="Path_83" data-name="Path 83" d="M13.57,30.7h-.094L5.5,30.087v-.039L.56,14.46l8.073.632v.039Zm-7.96-.743,7.8.607L8.536,15.207.725,14.6Z" transform="translate(-0.35 -9.27)" fill="#3a9da8"/>
          <path id="Path_84" data-name="Path 84" d="M8.265,5.94h0L0,5.3,15.459,0h0L23.7.642ZM.616,5.222l7.611.6L23.1.718l-7.63-.6Z" fill="#3a9da8"/>
        </g>
      </g>
      <g id="Layer_2-36" data-name="Layer 2" transform="translate(1053.396 19.202)">
        <g id="Object-36" data-name="Object" transform="translate(0 0)">
          <path id="Path_90" data-name="Path 90" d="M3.071,0A3.22,3.22,0,0,1,6.188,3.254,3.11,3.11,0,0,1,3.117,6.462,3.22,3.22,0,0,1,0,3.208,3.11,3.11,0,0,1,3.071,0Z" transform="matrix(0.16, -0.987, 0.987, 0.16, 0, 6.109)" fill="#7419ac"/>
        </g>
      </g>
      <g id="Layer_2-37" data-name="Layer 2" transform="translate(1064.709 19.159)">
        <g id="Object-37" data-name="Object" transform="translate(0 0)">
          <path id="Path_91" data-name="Path 91" d="M5.426,0a5.742,5.742,0,0,1,5.541,5.769,5.464,5.464,0,0,1-5.426,5.654A5.742,5.742,0,0,1,0,5.654,5.464,5.464,0,0,1,5.426,0Z" transform="translate(0 10.67) rotate(-76.63)" fill="#7419ac"/>
        </g>
      </g>
      <g id="Layer_2-38" data-name="Layer 2" transform="translate(1081.921 19.229)">
        <g id="Object-38" data-name="Object" transform="translate(0 0)">
          <path id="Path_85" data-name="Path 85" d="M.041,11.485A5.686,5.686,0,0,1,3.2,5.843c.278-.136.567-.255.845-.359s.5-.2.751-.312A5.817,5.817,0,0,0,8.1,0h.409A6.22,6.22,0,0,1,4.969,5.513c-.248.118-.507.223-.751.327s-.552.219-.815.359A5.374,5.374,0,0,0,.446,11.431Z" transform="translate(-0.011 0)" fill="#ff0"/>
        </g>
      </g>
      <g id="Layer_2-39" data-name="Layer 2" transform="translate(68.545 19.229)">
        <g id="Object-39" data-name="Object" transform="translate(0 0)">
          <ellipse id="Ellipse_1" data-name="Ellipse 1" cx="2.949" cy="2.817" rx="2.949" ry="2.817" fill="#ebebeb"/>
        </g>
      </g>
      <g id="Layer_2-40" data-name="Layer 2" transform="translate(78.312 19.229)">
        <g id="Object-40" data-name="Object" transform="translate(0 0)">
          <ellipse id="Ellipse_2" data-name="Ellipse 2" cx="2.22" cy="2.121" rx="2.22" ry="2.121" fill="#ebebeb"/>
        </g>
      </g>
      <g id="Layer_2-41" data-name="Layer 2" transform="translate(906.123 15.18) rotate(180)">
        <g id="Object-41" data-name="Object" transform="translate(0 0)">
          <ellipse id="Ellipse_2-2" data-name="Ellipse 2" cx="2.015" cy="1.925" rx="2.015" ry="1.925" fill="#ebebeb"/>
        </g>
      </g>
      <g id="Layer_2-42" data-name="Layer 2" transform="translate(86.577 19.229)">
        <g id="Object-42" data-name="Object" transform="translate(0 0)">
          <ellipse id="Ellipse_3" data-name="Ellipse 3" cx="2.22" cy="2.121" rx="2.22" ry="2.121" fill="#ebebeb"/>
        </g>
      </g>
      <g id="Layer_2-43" data-name="Layer 2" transform="translate(898.624 15.18) rotate(180)">
        <g id="Object-43" data-name="Object" transform="translate(0 0)">
          <ellipse id="Ellipse_3-2" data-name="Ellipse 3" cx="2.015" cy="1.925" rx="2.015" ry="1.925" fill="#ebebeb"/>
        </g>
      </g>
      <g id="Layer_2-44" data-name="Layer 2" transform="translate(94.842 19.229)">
        <g id="Object-44" data-name="Object" transform="translate(0 0)">
          <path id="Path_4" data-name="Path 4" d="M2.881,4.6l-2.57-2.7A1.1,1.1,0,0,1,.124.631,1.2,1.2,0,0,1,1.3.005,1.178,1.178,0,0,1,2.336.829L3.38,4.343a.259.259,0,0,1-.025.209.28.28,0,0,1-.175.128.286.286,0,0,1-.3-.079Z" transform="translate(0.001 0)" fill="#ff0"/>
        </g>
      </g>
      <g id="Layer_2-45" data-name="Layer 2" transform="translate(112.498 19.229)">
        <g id="Object-45" data-name="Object">
          <path id="Path_6" data-name="Path 6" d="M4.658,5.911,0,0,6.281,4.328A1.1,1.1,0,0,1,6.74,5.46a1.146,1.146,0,0,1-.888.867,1.2,1.2,0,0,1-1.193-.415Z" fill="#ff0"/>
        </g>
      </g>
      <g id="Layer_2-46" data-name="Layer 2" transform="translate(136.541 19.229)">
        <g id="Object-46" data-name="Object" transform="translate(0 0)">
          <path id="Path_8" data-name="Path 8" d="M2.25.605a1.12,1.12,0,0,1-.5,1.549A1.227,1.227,0,0,1,.133,1.68,1.12,1.12,0,0,1,.631.131,1.227,1.227,0,0,1,2.25.605Z" transform="translate(0.007 0.002)" fill="#032060"/>
        </g>
      </g>
      <g id="Layer_2-47" data-name="Layer 2" transform="translate(142.552 19.229)">
        <g id="Object-47" data-name="Object" transform="translate(0 0)">
          <path id="Path_9" data-name="Path 9" d="M1.565.079l9.767,4.35a.15.15,0,0,1,.079.085.141.141,0,0,1-.007.113.153.153,0,0,1-.177.079L.787,2.164A1.146,1.146,0,0,1-.1,1.393,1.079,1.079,0,0,1,.2.283,1.2,1.2,0,0,1,1.362.011a1.035,1.035,0,0,1,.2.068Z" transform="translate(0.148 0.039)" fill="#fad02c"/>
        </g>
      </g>
      <g id="Layer_2-48" data-name="Layer 2" transform="translate(157.955 19.229)">
        <g id="Object-48" data-name="Object" transform="translate(0 0)">
          <path id="Path_10" data-name="Path 10" d="M.223,3.93,14.694.046a1.178,1.178,0,0,1,1.441.777A1.112,1.112,0,0,1,15.321,2.2l-.128.025L.369,4.515a.331.331,0,0,1-.242-.048.294.294,0,0,1,.1-.537Z" transform="translate(0.01 -0.005)" fill="#0676d0"/>
        </g>
      </g>
      <g id="Layer_2-49" data-name="Layer 2" transform="translate(255.694 23.229)">
        <g id="Object-49" data-name="Object">
          <path id="Path_27" data-name="Path 27" d="M34.545,0l.769.919-6.936,5.3,6.631,5.935-.849.854L26.5,6.14Z" transform="translate(3.486)" fill="#fff"/>
          <path id="Path_28" data-name="Path 28" d="M25.717,0l.769.919-6.948,5.3,6.631,5.935-.837.854L17.66,6.14Z" transform="translate(2.323)" fill="#fff"/>
          <path id="Path_29" data-name="Path 29" d="M16.875,0l.769.919-6.936,5.3,6.631,5.935-.849.854L8.83,6.14Z" transform="translate(1.161)" fill="#fff"/>
          <path id="Path_30" data-name="Path 30" d="M8.045,0l.769.919-6.936,5.3,6.631,5.935-.849.854L0,6.14Z" fill="#fff"/>
        </g>
      </g>
      <g id="Layer_2-50" data-name="Layer 2" transform="translate(305.481 23.229)">
        <g id="Object-50" data-name="Object">
          <path id="Path_31" data-name="Path 31" d="M.769,13.005,0,12.086l6.936-5.3L.306.854,1.154,0l7.66,6.865Z" fill="#fff"/>
          <path id="Path_32" data-name="Path 32" d="M9.6,13.005l-.769-.919,6.948-5.3L9.147.854,9.984,0l7.672,6.865Z" transform="translate(1.161)" fill="#fff"/>
          <path id="Path_33" data-name="Path 33" d="M18.439,13.005l-.769-.919,6.936-5.3L17.976.854,18.824,0l7.66,6.865Z" transform="translate(2.324)" fill="#fff"/>
          <path id="Path_34" data-name="Path 34" d="M27.269,13.005l-.769-.919,6.936-5.3L26.806.854,27.654,0l7.66,6.865Z" transform="translate(3.486)" fill="#fff"/>
        </g>
      </g>
      <g id="Layer_2-51" data-name="Layer 2" transform="translate(507 22.995)">
        <g id="Object-51" data-name="Object">
          <path id="Path_31-2" data-name="Path 31" d="M.769,13.005,0,12.086l6.936-5.3L.306.854,1.154,0l7.66,6.865Z" fill="#fff"/>
          <path id="Path_32-2" data-name="Path 32" d="M9.6,13.005l-.769-.919,6.948-5.3L9.147.854,9.984,0l7.672,6.865Z" transform="translate(1.161)" fill="#fff"/>
          <path id="Path_33-2" data-name="Path 33" d="M18.439,13.005l-.769-.919,6.936-5.3L17.976.854,18.824,0l7.66,6.865Z" transform="translate(2.324)" fill="#fff"/>
          <path id="Path_34-2" data-name="Path 34" d="M27.269,13.005l-.769-.919,6.936-5.3L26.806.854,27.654,0l7.66,6.865Z" transform="translate(3.486)" fill="#fff"/>
        </g>
      </g>
      <g id="Layer_2-52" data-name="Layer 2" transform="translate(289.755 11.229)">
        <g id="Object-52" data-name="Object">
          <path id="Path_37" data-name="Path 37" d="M1.781.851A.871.871,0,0,1,.89,1.7.871.871,0,0,1,0,.851.871.871,0,0,1,.89,0,.871.871,0,0,1,1.781.851Z" fill="#fad02c"/>
        </g>
      </g>
      <g id="Layer_2-53" data-name="Layer 2" transform="translate(295.39 11.229)">
        <g id="Object-53" data-name="Object">
          <path id="Path_38" data-name="Path 38" d="M1.781.851A.871.871,0,0,1,.89,1.7.871.871,0,0,1,0,.851.871.871,0,0,1,.89,0,.871.871,0,0,1,1.781.851Z" fill="#fad02c"/>
        </g>
      </g>
      <g id="Layer_2-54" data-name="Layer 2" transform="translate(300.649 11.229)">
        <g id="Object-54" data-name="Object" transform="translate(0 0)">
          <ellipse id="Ellipse_6" data-name="Ellipse 6" cx="0.89" cy="0.851" rx="0.89" ry="0.851" fill="#fad02c"/>
        </g>
      </g>
      <g id="Layer_2-55" data-name="Layer 2" transform="translate(306.284 11.229)">
        <g id="Object-55" data-name="Object">
          <path id="Path_39" data-name="Path 39" d="M1.781.851A.871.871,0,0,1,.89,1.7.871.871,0,0,1,0,.851.871.871,0,0,1,.89,0,.871.871,0,0,1,1.781.851Z" fill="#0676d0"/>
        </g>
      </g>
      <g id="Layer_2-56" data-name="Layer 2" transform="translate(311.919 11.229)">
        <g id="Object-56" data-name="Object" transform="translate(0 0)">
          <ellipse id="Ellipse_7" data-name="Ellipse 7" cx="1.337" cy="1.278" rx="1.337" ry="1.278" fill="#ebebeb"/>
        </g>
      </g>
      <g id="Layer_2-57" data-name="Layer 2" transform="translate(944.722 38.771) rotate(180)">
        <g id="Object-57" data-name="Object">
          <rect id="Rectangle_10" data-name="Rectangle 10" width="8.256" height="3.406" fill="#3a9da8"/>
        </g>
      </g>
      <rect id="Rectangle_11" data-name="Rectangle 11" width="1366" height="44" fill="#441487" opacity="0.73"/>
      <g id="Layer_2-58" data-name="Layer 2" transform="translate(329.171 -6.771)">
        <g id="Object-58" data-name="Object" transform="translate(0 0)">
          <ellipse id="Ellipse_4" data-name="Ellipse 4" cx="0.718" cy="0.686" rx="0.718" ry="0.686" fill="#ebebeb"/>
        </g>
      </g>
      <g id="Layer_2-59" data-name="Layer 2" transform="translate(334.431 -6.771)">
        <g id="Object-59" data-name="Object" transform="translate(0 0)">
          <ellipse id="Ellipse_5" data-name="Ellipse 5" cx="1.799" cy="1.719" rx="1.799" ry="1.719" fill="#fad02c"/>
        </g>
      </g>
      <g id="Layer_2-60" data-name="Layer 2" transform="translate(543.304 -6.771)">
        <g id="Object-60" data-name="Object">
          <path id="Path_55" data-name="Path 55" d="M6.217,2.326,2.4,4.2,0,0,.564,4.013,1.818,6.152l4.606-2.34Z" fill="#d6d6d6"/>
        </g>
      </g>
      <g id="Layer_2-61" data-name="Layer 2" transform="translate(1294.271 -6.771)">
        <g id="Object-61" data-name="Object">
          <path id="Path_77" data-name="Path 77" d="M4.621,2.207C2.6,2.358,2.468,2.48,2.31,4.415,2.153,2.48,2.025,2.358,0,2.207,2.025,2.057,2.153,1.935,2.31,0,2.468,1.935,2.6,2.057,4.621,2.207Z" fill="#ebebeb"/>
        </g>
      </g>
      <g id="Layer_2-62" data-name="Layer 2" transform="translate(10.226 -6.771)">
        <g id="Object-62" data-name="Object">
          <rect id="Rectangle_8" data-name="Rectangle 8" width="9.099" height="3.754" fill="#d99426"/>
        </g>
      </g>
      <g id="Layer_2-63" data-name="Layer 2" transform="translate(22.999 -6.771)">
        <g id="Object-63" data-name="Object">
          <rect id="Rectangle_9" data-name="Rectangle 9" width="9.099" height="3.754" fill="#d99426"/>
        </g>
      </g>
      <g id="Layer_2-64" data-name="Layer 2" transform="translate(35.772 -6.771)">
        <g id="Object-64" data-name="Object">
          <rect id="Rectangle_10-2" data-name="Rectangle 10" width="9.099" height="3.754" fill="#3a9da8"/>
        </g>
      </g>
    </g>
  </g>
</svg>
